<svg xmlns="http://www.w3.org/2000/svg" version="1.0" width="247.72413635253906" height="242.20689392089844" preserveAspectRatio="xMidYMid meet" style=""><rect id="backgroundrect" width="100%" height="100%" x="0" y="0" fill="none" stroke="none"/>


<g class="currentLayer" style=""><title>Layer 1</title><g transform="translate(0,256) scale(0.10000000149011612,-0.10000000149011612) " fill="#000000" stroke="none" id="svg_1" class="">
<path d="M1013.1649528002548,1953.9629863756136 c-185.72325118528934,-21.588262229025162 -375.31573677027217,-111.66342532254393 -471.2727498826717,-222.58242780960424 c-109.11241007135747,-125.80745919673282 -130.00627582970253,-257.57030107733465 -65.77698479478997,-418.36563354179793 c13.929243838896701,-34.987873267730436 13.929243838896701,-37.22114177418131 -3.8692343996935277,-130.2739962096346 c-10.060009439203172,-52.85402131933746 -20.120018878406345,-99.75265995480592 -21.667712638283756,-104.96361980319129 c-2.3215406398161167,-5.210959848385384 34.049262717303044,3.722114177418131 91.31393183276725,23.077107899992413 l95.9570131123995,32.010181925795926 l49.52620031607716,-28.288067748377795 c27.858487677793402,-14.888456709672525 51.07389407595457,-26.799222077410544 51.84774095589327,-26.05479924192692 c0.7738468799387056,0.7444228354836266 -6.9646219194483505,26.799222077410544 -18.572325118528934,57.32055833223922 c-27.084640797854696,75.18670638384624 -27.858487677793402,182.38359469348842 -3.0953875197548224,248.63722705153117 c53.39543471577068,139.95149307092174 187.27094494516675,262.0368380902364 358.29110541162066,327.5460476127955 c168.6986198266378,63.27594101610822 406.2696119678204,74.44228354836262 584.2543943537227,26.799222077410544 c61.90775039509644,-16.377302380639776 58.81236287534162,-7.444228354836262 -14.703090718835405,52.10959848385384 c-90.54008495282855,73.697860712879 -215.90327950289887,128.78515053866732 -347.45724909247883,152.60668127414337 c-79.70622863368668,14.144033874188898 -212.0340451032053,19.35499372257428 -284.77565181744365,10.421919696770768 z" id="svg_2"/>
<path d="M1264.6651887803341,1716.4921018563368 c-275.48948925817916,-47.64306147095208 -479.01121868205877,-203.97185692251358 -514.6081751592392,-394.5441028063219 c-45.656965916383626,-241.93742153217855 190.36633246492158,-466.7531178482336 540.1451221972164,-514.3961793191858 c81.25392239356408,-11.166342532254394 225.96328894210203,-5.210959848385384 311.08644573535963,11.91076536773802 l65.77698479478997,13.399611038705272 l92.08777871270597,-57.32055833223922 c51.07389407595457,-31.2657590903123 94.40931935252208,-56.57613549675559 97.5047068722769,-56.57613549675559 c3.0953875197548224,0 7.738468799387055,46.89863863546845 10.060009439203172,104.96361980319129 c3.8692343996935277,99.00823711932229 4.643081279632233,105.70804263867493 22.441559518222462,116.87438517092932 c73.51545359417703,49.131907141919335 143.93551966859923,139.20707023543812 168.6986198266378,216.62704512573524 c20.120018878406345,62.5315181806246 20.120018878406345,147.395721425758 0,209.92723960638259 c-48.75235343613845,151.86225843865975 -209.71250446338922,277.6697176353926 -424.84193708634933,332.0125846256973 c-61.90775039509644,15.63287954515615 -95.9570131123995,19.35499372257428 -201.97403566400214,21.588262229025162 c-70.42006607442221,0.7444228354836266 -144.70936654853796,-0.7444228354836266 -166.3770791868217,-4.466537012901758 z" id="svg_3"/>
</g></g></svg>