<?xml version="1.0" encoding="utf-8"?>
<!-- Generator: Adobe Illustrator 26.0.1, SVG Export Plug-In . SVG Version: 6.00 Build 0)  -->
<svg version="1.1" id="Layer_1" xmlns="http://www.w3.org/2000/svg" xmlns:xlink="http://www.w3.org/1999/xlink" x="0px" y="0px"
	 viewBox="0 0 24 24" style="enable-background:new 0 0 24 24;" xml:space="preserve">
<style type="text/css">
	.st0{fill:#4FA8EB;}
</style>
<path class="st0" d="M20.3,19c1.2-1.5,2.1-3.5,2.1-6c0-5.3-4.3-9.6-9.6-9.6S3.4,7.7,3.4,13s4.3,9.6,9.6,9.6c2.5,0,4.4-0.8,5.9-2.1
	l-7.5-7.6l-3.3,3.2V8.2h2.4V11l2.8-2.8H16l-3.2,3.3L20.3,19z M7,18.8c-1.5-1.4-2.4-3.5-2.4-5.8S5.5,8.7,7,7.1V18.8z M11.5,14.7
	l5.5,5.7c-1.2,0.6-2.6,1-4,1c-2.3,0-4.4-0.9-5.9-2.5L11.5,14.7z M13,7l-1.2,1.3V7H7.1c1.6-1.5,3.6-2.4,5.9-2.4s4.4,0.9,5.9,2.4H13z
	 M18.9,7.1c1.5,1.5,2.5,3.6,2.5,5.9c0,1.5-0.4,3-1.1,4.2l-5.8-5.7L18.9,7.1z"/>
</svg>
