<?xml version="1.0" encoding="utf-8"?>
<!-- Generator: Adobe Illustrator 26.0.1, SVG Export Plug-In . SVG Version: 6.00 Build 0)  -->
<svg version="1.1" id="Layer_1" xmlns="http://www.w3.org/2000/svg" xmlns:xlink="http://www.w3.org/1999/xlink" x="0px" y="0px"
	 viewBox="0 0 24 24" style="enable-background:new 0 0 24 24;" xml:space="preserve">
<style type="text/css">
	.st0{fill:#4FA8EB;}
</style>
<path class="st0" d="M6.1,17.9l4.4-4.2l5.5,5.7c-1.2,0.6-2.6,1-4,1C9.7,20.4,7.6,19.5,6.1,17.9z M3.6,12c0-2.3,0.9-4.3,2.4-5.9v11.7
	C4.5,16.4,3.6,14.3,3.6,12z M13.5,10.5l4.4-4.4c1.5,1.5,2.5,3.6,2.5,5.9c0,1.5-0.4,3-1.1,4.2L13.5,10.5z M6.1,6
	C7.7,4.5,9.7,3.6,12,3.6s4.4,0.9,5.9,2.4H12l-1.2,1.3V6H6.1z M2.4,12c0,5.3,4.3,9.6,9.6,9.6c2.5,0,4.4-0.8,5.9-2.1l-7.5-7.6
	l-3.3,3.2V7.2h2.4V10l2.8-2.8H15l-3.2,3.3l7.5,7.5c1.2-1.5,2.1-3.5,2.1-6c0-5.3-4.3-9.6-9.6-9.6S2.4,6.7,2.4,12z M22.8,22.8H1.2V1.2
	h21.6C22.8,1.2,22.8,22.8,22.8,22.8z M0,24h24V0H0V24z"/>
</svg>
