<?xml version="1.0" standalone="no"?>
<!DOCTYPE svg PUBLIC "-//W3C//DTD SVG 20010904//EN"
 "http://www.w3.org/TR/2001/REC-SVG-20010904/DTD/svg10.dtd">
<svg version="1.0" xmlns="http://www.w3.org/2000/svg"
 width="256.000000pt" height="256.000000pt" viewBox="0 0 256.000000 256.000000"
 preserveAspectRatio="xMidYMid meet">

<g transform="translate(0.000000,256.000000) scale(0.100000,-0.100000)"
fill="#000000" stroke="none">
<path d="M960 2109 c-240 -29 -485 -150 -609 -299 -141 -169 -168 -346 -85
-562 18 -47 18 -50 -5 -175 -13 -71 -26 -134 -28 -141 -3 -7 44 5 118 31 l124
43 64 -38 c36 -20 66 -36 67 -35 1 1 -9 36 -24 77 -35 101 -36 245 -4 334 69
188 242 352 463 440 218 85 525 100 755 36 80 -22 76 -10 -19 70 -117 99 -279
173 -449 205 -103 19 -274 26 -368 14z"/>
<path d="M1285 1790 c-356 -64 -619 -274 -665 -530 -59 -325 246 -627 698
-691 105 -15 292 -7 402 16 l85 18 119 -77 c66 -42 122 -76 126 -76 4 0 10 63
13 141 5 133 6 142 29 157 95 66 186 187 218 291 26 84 26 198 0 282 -63 204
-271 373 -549 446 -80 21 -124 26 -261 29 -91 1 -187 -1 -215 -6z"/>
</g>
</svg>
